<svg xmlns="http://www.w3.org/2000/svg" xmlns:xlink="http://www.w3.org/1999/xlink" version="1.1" style="" xml:space="preserve" width="512" height="512"><rect id="backgroundrect" width="100%" height="100%" x="0" y="0" fill="none" stroke="none"/>
















<g class="currentLayer" style=""><title>Layer 1</title><g id="svg_1" class="selected" fill-opacity="1" fill="#808080">
	<g id="svg_2" fill="#808080">
		<path d="M512.063,434.259 c-1.7280000000000002,-142.329 -124.42,-258.242 -277.087,-263.419 V95.999 c0,-17.645 -14.342,-31.999 -31.974,-31.999 c-7.931,0 -15.591,3.042 -21.524,8.562 c0,0 -134.828,124.829 -173.609,163.755 C3.123,241.109 0.5,248.088 0.5,255.994 c0,7.906 2.623,14.885 7.369,19.687 c38.781,38.915 173.609,163.745 173.609,163.745 c5.933,5.521 13.593,8.562 21.524,8.562 c17.631,0 31.974,-14.354 31.974,-31.999 v-74.591 c153.479,2.156 255.792,50.603 255.792,95.924 c0,5.896 4.767,10.666 10.658,10.666 c0.16700000000000004,0.021000000000000005 0.3330000000000001,0.010000000000000002 0.41600000000000004,0 c5.891,0 10.658,-4.771 10.658,-10.666 C512.5,436.259 512.354,435.228 512.063,434.259 z" id="svg_3" fill="#808080"/>
	</g>
</g><g id="svg_4">
</g><g id="svg_5">
</g><g id="svg_6">
</g><g id="svg_7">
</g><g id="svg_8">
</g><g id="svg_9">
</g><g id="svg_10">
</g><g id="svg_11">
</g><g id="svg_12">
</g><g id="svg_13">
</g><g id="svg_14">
</g><g id="svg_15">
</g><g id="svg_16">
</g><g id="svg_17">
</g><g id="svg_18">
</g></g></svg>