<svg xmlns="http://www.w3.org/2000/svg" xmlns:xlink="http://www.w3.org/1999/xlink" version="1.1" style="" xml:space="preserve" width="435.10400390625" height="435.10400390625"><rect id="backgroundrect" width="100%" height="100%" x="0" y="0" fill="none" stroke="none"/>
















<g class="currentLayer" style=""><title>Layer 1</title><g id="svg_1" class="selected" fill-opacity="1" fill="#00909e">
	<g id="svg_2" fill="#00909e">
		<g id="svg_3" fill="#00909e">
			<circle cx="154.11199951171875" cy="377.6839904785156" r="52.736000061035156" id="svg_4" fill="#00909e"/>
			<path d="M323.072,324.436L323.072,324.436c-29.267-2.88-55.327,18.51-58.207,47.777c-2.88,29.267,18.51,55.327,47.777,58.207     c3.468,0.341,6.962,0.341,10.43,0c29.267-2.88,50.657-28.94,47.777-58.207C368.361,346.928,348.356,326.924,323.072,324.436z" id="svg_5" fill="#00909e"/>
			<path d="M431.616,123.732c-2.62-3.923-7.059-6.239-11.776-6.144h-58.368v-1.024C361.476,54.637,311.278,4.432,249.351,4.428     C187.425,4.424,137.22,54.622,137.216,116.549c0,0.005,0,0.01,0,0.015v1.024h-43.52L78.848,50.004     C77.199,43.129,71.07,38.268,64,38.228H0v30.72h51.712l47.616,218.624c1.257,7.188,7.552,12.397,14.848,12.288h267.776     c7.07-0.041,13.198-4.901,14.848-11.776l37.888-151.552C435.799,132.019,434.654,127.248,431.616,123.732z M249.344,197.972     c-44.96,0-81.408-36.448-81.408-81.408s36.448-81.408,81.408-81.408s81.408,36.448,81.408,81.408     C330.473,161.408,294.188,197.692,249.344,197.972z" id="svg_6" fill="#00909e"/>
			<path d="M237.056,118.1l-28.16-28.672l-22.016,21.504l38.912,39.424c2.836,2.894,6.7,4.55,10.752,4.608     c3.999,0.196,7.897-1.289,10.752-4.096l64.512-60.928l-20.992-22.528L237.056,118.1z" id="svg_7" fill="#00909e"/>
		</g>
	</g>
</g><g id="svg_8">
</g><g id="svg_9">
</g><g id="svg_10">
</g><g id="svg_11">
</g><g id="svg_12">
</g><g id="svg_13">
</g><g id="svg_14">
</g><g id="svg_15">
</g><g id="svg_16">
</g><g id="svg_17">
</g><g id="svg_18">
</g><g id="svg_19">
</g><g id="svg_20">
</g><g id="svg_21">
</g><g id="svg_22">
</g></g></svg>