<svg xmlns="http://www.w3.org/2000/svg" enable-background="new 0 0 512 512" height="512" width="512"><rect id="backgroundrect" width="100%" height="100%" x="0" y="0" fill="none" stroke="none"/><g class="currentLayer" style=""><title>Layer 1</title><g id="svg_1" class="selected" fill-opacity="1" fill="#00909e"><path d="m461.747,439.163 c75.489,-87.071 66.225,-218.376 -18.944,-294.583 c43.746,153.294 -71.93,306.42 -231.303,306.42 c-3.068,0 15.448,0.10800000000000001 -57.484,-0.3420000000000001 c39.889,39.703 93.017,61.342 148.48,61.342 c0.14400000000000002,0 195.446,-0.999 195.561,-1 c13.333,-0.06400000000000002 19.975,-16.29 10.464,-25.677 z" id="svg_2" fill="#00909e"/><path d="m211.5,421 c116.064,0 210.489,-94.43 210.489,-210.5 s-94.424,-210.5 -210.489,-210.5 s-210.488,94.43 -210.488,210.5 c0,51.099 18.088,99.427 51.237,137.663 l-46.774,46.16 c-9.48,9.357 -2.9130000000000003,25.612000000000002 10.465,25.677 c0.10300000000000001,0.0010000000000000002 195.458,1 195.56,1 zm-89.495,-285 h179.99 c8.284,0 14.999,6.716 14.999,15 s-6.715,15 -14.999,15 h-179.99 c-8.284,0 -14.999,-6.716 -14.999,-15 s6.716,-15 14.999,-15 zm0,60 h179.99 c8.284,0 14.999,6.716 14.999,15 s-6.715,15 -14.999,15 h-179.99 c-8.284,0 -14.999,-6.716 -14.999,-15 s6.716,-15 14.999,-15 zm-14.999,75 c0,-8.284 6.715,-15 14.999,-15 h179.99 c8.284,0 14.999,6.716 14.999,15 s-6.715,15 -14.999,15 h-179.99 c-8.283,0 -14.999,-6.716 -14.999,-15 z" id="svg_3" fill="#00909e"/></g></g></svg>