<svg xmlns="http://www.w3.org/2000/svg" xmlns:xlink="http://www.w3.org/1999/xlink" version="1.1" style="" xml:space="preserve" width="512" height="512"><rect id="backgroundrect" width="100%" height="100%" x="0" y="0" fill="none" stroke="none"/>
















<g class="currentLayer" style=""><title>Layer 1</title><g id="svg_1" class="selected" fill="#808080" fill-opacity="1">
	<g id="svg_2" fill="#808080" fill-opacity="1">
		<path d="M476.513158744812,74.737289686203 C451.26015874481203,46.083289686203 416.227158744812,30.303289686203 377.869158744812,30.303289686203 c-53.948,0 -88.103,32.22 -107.255,59.25 c-4.969,7.014 -9.196,14.047 -12.745000000000001,20.665 c-3.549,-6.618 -7.775,-13.651 -12.745000000000001,-20.665 c-19.152,-27.03 -53.307,-59.25 -107.255,-59.25 c-38.358,0 -73.391,15.781 -98.645,44.435 C15.136158744812011,102.072289686203 1.8691587448120117,138.680289686203 1.8691587448120117,177.818289686203 c0,42.603 16.633,82.228 52.345,124.7 c31.917,37.96 77.834,77.088 131.005,122.397 c19.813,16.884 40.302,34.344 62.115,53.429 l0.6550000000000001,0.5740000000000001 c2.8280000000000003,2.476 6.354,3.713 9.88,3.713 s7.052,-1.238 9.88,-3.713 l0.6550000000000001,-0.5740000000000001 c21.813,-19.085 42.302,-36.544 62.118,-53.431 c53.168,-45.306 99.085,-84.434 131.002,-122.395 C497.23615874481203,260.045289686203 513.869158744812,220.421289686203 513.869158744812,177.818289686203 C513.869158744812,138.680289686203 500.602158744812,102.072289686203 476.513158744812,74.737289686203 zM311.062158744812,402.081289686203 c-17.08,14.554 -34.658,29.533 -53.193,45.646 c-18.534,-16.111 -36.113,-31.091 -53.196,-45.648 C100.61415874481202,313.406289686203 31.86915874481201,254.825289686203 31.86915874481201,177.818289686203 c0,-31.83 10.605,-61.394 29.862000000000002,-83.245 C81.20915874481202,72.47428968620301 108.24815874481202,60.303289686203 137.869158744812,60.303289686203 c41.129,0 67.716,25.338 82.776,46.594 c13.509,19.064 20.558,38.282 22.962,45.659 c2.011,6.175 7.768,10.354 14.262,10.354 c6.494,0 12.251,-4.179 14.262,-10.354 c2.404,-7.377 9.453,-26.595 22.962,-45.66 c15.06,-21.255 41.647,-46.593 82.776,-46.593 c29.621,0 56.66,12.171 76.137,34.27 C473.264158744812,116.424289686203 483.869158744812,145.988289686203 483.869158744812,177.818289686203 C483.869158744812,254.825289686203 415.124158744812,313.406289686203 311.062158744812,402.081289686203 z" id="svg_3" fill="#808080" fill-opacity="1"/>
	</g>
</g><g id="svg_4">
</g><g id="svg_5">
</g><g id="svg_6">
</g><g id="svg_7">
</g><g id="svg_8">
</g><g id="svg_9">
</g><g id="svg_10">
</g><g id="svg_11">
</g><g id="svg_12">
</g><g id="svg_13">
</g><g id="svg_14">
</g><g id="svg_15">
</g><g id="svg_16">
</g><g id="svg_17">
</g><g id="svg_18">
</g></g></svg>