<svg id="Layer_1" enable-background="new 0 0 496.022 496.022" height="512" viewBox="0 0 496.022 496.022" width="512" xmlns="http://www.w3.org/2000/svg"><path d="m474.884 256.011c-21.49 0-41.7 8.35-56.94 23.52-48.882 56.69-45.656 52.966-45.98 53.29-15.429 15.452-41.8 4.53-41.8-17.33 0-48.013-.115-44.514.27-45.97l54-201.93c4.15-15.53-5.07-31.56-20.57-35.72-15.561-4.17-31.469 5.09-35.62 20.62-.02.1 1.162-4.072-56.56 197.72-2.54 8.869-15.69 7.03-15.69-2.2v-218.84c0-16.08-13.05-29.16-29.09-29.16s-29.09 13.08-29.09 29.16v212.44c0 9.326-13.334 11.046-15.72 2.06l-48.6-181.73c-2.02-7.53-6.84-13.83-13.58-17.72-22.296-12.872-49.31 7.747-42.61 32.82l49.84 186.38c2.416 9.014-10.035 14.108-14.66 6.06l-65.87-114.32c-4.641-8.046-13.01-12.52-21.66-12.52-19.011 0-31.222 20.833-21.58 37.57l46.26 80.27c18.76 32.57 28.68 69.66 28.68 107.271 0 70.72 57.42 128.26 127.99 128.26h29.21c37.45 0 72.67-14.61 99.17-41.13l154.61-162.15c2.821-2.229 6.394-8.271 6.7-14.42.619-12.151-8.987-22.301-21.11-22.301zm-160.25 82.57c-57.25 7.63-100.42 57-100.42 114.85 0 4.42-3.58 8-8 8-4.41 0-8-3.58-8-8 0-65.84 49.14-122.03 114.3-130.71 4.39-.58 8.41 2.5 8.99 6.88s-2.5 8.4-6.87 8.98z"/></svg>