<svg id="Capa_1" enable-background="new 0 0 512.25 512.25" height="512" viewBox="0 0 512.25 512.25" width="512" xmlns="http://www.w3.org/2000/svg"><path d="m493.567 357.307-193.863-135.704c-8.676-6.073-18.372-10.203-28.583-12.249v-15.627c25.849-6.677 45-30.195 45-58.101 0-33.084-26.916-60-60-60s-60 26.916-60 60c0 8.284 6.716 15 15 15s15-6.716 15-15c0-16.542 13.458-30 30-30s30 13.458 30 30-13.458 30-30 30c-8.284 0-15 6.716-15 15v28.729c-10.211 2.045-19.907 6.176-28.583 12.249l-193.862 135.703c-34.893 24.427-17.661 79.318 25.003 79.318h424.886c42.593 0 59.953-54.851 25.002-79.318zm-25.003 49.318h-424.885c-13.332 0-18.729-17.091-7.799-24.741l193.863-135.705c7.771-5.439 16.893-8.315 26.379-8.315s18.608 2.875 26.379 8.315l193.863 135.704c10.921 7.646 5.543 24.742-7.8 24.742z"/></svg>