<svg id="Capa_1" enable-background="new 0 0 512 512" height="512" viewBox="0 0 512 512" width="512" xmlns="http://www.w3.org/2000/svg"><g><g><g><g><g><g><path d="m399.637 371.247c39.573-39.672 39.545-103.911-.089-143.545-37.506-37.506-97.045-39.545-136.949-6.122-3.818 3.198-9.379 3.198-13.197 0-39.904-33.423-99.443-31.384-136.949 6.122-39.634 39.634-39.662 103.873-.089 143.545l138.706 138.71c2.723 2.724 7.139 2.724 9.862 0z" fill="#fb4a59"/></g></g><g><g><path d="m399.639 371.245-138.705 138.713c-2.723 2.723-7.145 2.723-9.868 0l-17.338-17.346 132.492-132.492c39.571-39.672 39.54-103.913-.093-143.546-7.114-7.114-15.026-12.955-23.443-17.517 20.814 3.08 40.851 12.629 56.863 28.641 39.633 39.642 39.664 103.874.092 143.547z" fill="#f82f40"/></g></g></g></g></g><g><g><path d="m311.48 173.322c-4.008 0-8.013-1.54-11.052-4.616-11.835-11.973-27.613-18.568-44.428-18.568s-32.593 6.594-44.428 18.568c-6.033 6.103-15.872 6.161-21.975.128s-6.161-15.872-.127-21.975c17.718-17.927 41.346-27.799 66.531-27.799 25.184 0 48.813 9.873 66.531 27.799 6.034 6.103 5.976 15.942-.127 21.975-3.031 2.994-6.979 4.488-10.925 4.488z" fill="#fee265"/></g><g><path d="m343.636 128.244c-4.008 0-8.012-1.54-11.052-4.615-20.402-20.639-47.599-32.006-76.584-32.006s-56.182 11.366-76.584 32.005c-6.033 6.103-15.871 6.161-21.975.127-6.103-6.033-6.161-15.871-.127-21.975 26.284-26.591 61.332-41.235 98.686-41.235s72.402 14.644 98.686 41.236c6.034 6.104 5.976 15.942-.127 21.975-3.029 2.994-6.978 4.488-10.923 4.488z" fill="#fee265"/></g><g><path d="m385.506 85.195c-4.008 0-8.013-1.54-11.052-4.616-31.552-31.921-73.619-49.501-118.454-49.501s-86.902 17.58-118.454 49.501c-6.033 6.103-15.871 6.161-21.975.128-6.103-6.033-6.161-15.872-.127-21.975 37.435-37.874 87.352-58.732 140.556-58.732s103.121 20.858 140.557 58.733c6.034 6.103 5.976 15.942-.127 21.975-3.03 2.993-6.978 4.487-10.924 4.487z" fill="#fee265"/></g></g></g><g><path d="m322.4 168.84c-3.03 2.99-6.97 4.48-10.92 4.48-4.01 0-8.01-1.54-11.05-4.61-3.75-3.79-7.9-7.05-12.35-9.73 1.58.46 3.2.7 4.84.7 4.28 0 8.57-1.62 11.86-4.87 5.52-5.45 6.48-13.77 2.88-20.22 5.3 3.53 10.29 7.63 14.87 12.27 6.03 6.1 5.98 15.94-.13 21.98z" fill="#fdd330"/></g><g><path d="m354.56 123.76c-3.03 2.99-6.98 4.48-10.92 4.48-4.01 0-8.02-1.54-11.06-4.61-5.3-5.37-11.07-10.11-17.21-14.18 2.41 1.24 5.04 1.85 7.69 1.85 4.28 0 8.57-1.62 11.86-4.87 5.08-5.03 6.3-12.48 3.64-18.67 5.67 4.22 11.06 8.89 16.13 14.02 6.03 6.1 5.97 15.94-.13 21.98z" fill="#fdd330"/></g><g><path d="m396.43 80.71c-3.03 2.99-6.98 4.49-10.92 4.49-4.01 0-8.02-1.54-11.06-4.62-5.04-5.1-10.35-9.84-15.9-14.19 2.34 1.16 4.89 1.74 7.45 1.74 4.29 0 8.58-1.63 11.87-4.88 4.92-4.86 6.22-12 3.88-18.07 5.13 4.23 10.07 8.76 14.81 13.55 6.03 6.11 5.97 15.95-.13 21.98z" fill="#fdd330"/></g></svg>