<svg height="511pt" viewBox="-36 0 511 511.99787" width="511pt" xmlns="http://www.w3.org/2000/svg"><path d="m230.105469 385.335938h-19.675781c-62.558594 0-120.054688 35.527343-146.929688 92.015624-3.984375 8.378907-7.640625 17.414063-10.8125 27.136719h335.183594c-2.882813-8.835937-6.164063-17.105469-9.730469-24.832031-26.617187-57.632812-84.550781-94.320312-148.035156-94.320312zm0 0" fill="#64dcfc"/><path d="m387.878906 504.488281h-25.144531c-2.882813-8.839843-6.167969-17.101562-9.734375-24.832031-26.191406-56.730469-82.746094-93.167969-145.054688-94.289062.820313-.019532 1.652344-.03125 2.480469-.03125h19.675781c63.484376 0 121.429688 36.6875 148.035157 94.320312 3.574219 7.730469 6.847656 15.992188 9.742187 24.832031zm0 0" fill="#00d1fc"/><path d="m217.453125 449.417969h5.660156c18.003907 0 34.550781-10.222657 42.285157-26.480469 1.148437-2.410156 2.199218-5.011719 3.113281-7.8125h-96.464844c.832031 2.546875 1.777344 4.925781 2.800781 7.148438 7.660156 16.585937 24.335938 27.144531 42.605469 27.144531zm0 0" fill="#ffbfab"/><path d="m47.082031 199.632812c0-95.652343 77.542969-173.199218 173.199219-173.199218s173.199219 77.546875 173.199219 173.199218l-.007813 45.851563v44.203125c0 68.90625-55.382812 124.851562-123.945312 125.425781-.367188.011719-.71875.011719-1.082032.011719h-96.335937c-.351563 0-.71875 0-1.070313-.011719-68.550781-.574219-123.957031-56.519531-123.957031-125.425781zm0 0" fill="#ffcebf"/><path d="m393.484375 199.632812-.007813 45.851563v44.207031c0 68.898438-55.382812 124.851563-123.953124 125.421875-.359376.011719-.710938.011719-1.082032.011719h-24.28125c.363282 0 .710938 0 1.082032-.011719 68.558593-.570312 123.941406-56.523437 123.941406-125.421875v-44.207031l.007812-45.851563c0-91.566406-71.058594-166.546874-161.046875-172.773437 4.015625-.28125 8.058594-.421875 12.136719-.421875 95.652344 0 173.203125 77.542969 173.203125 173.195312zm0 0" fill="#ffbfab"/><path d="m47.082031 208.476562h-2.183593c-20.375 0-36.890626 16.570313-36.890626 37.007813 0 20.441406 16.515626 37.011719 36.890626 37.011719h2.183593zm0 0" fill="#ffcebf"/><path d="m393.476562 208.476562h2.1875c20.371094 0 36.886719 16.570313 36.886719 37.007813 0 20.441406-16.515625 37.011719-36.886719 37.011719h-2.1875zm0 0" fill="#ffbfab"/><path d="m140.511719 307.628906c0 9.945313-8.0625 18.007813-18.007813 18.007813-9.945312 0-18.007812-8.0625-18.007812-18.007813 0-9.945312 8.0625-18.007812 18.007812-18.007812 9.945313 0 18.007813 8.0625 18.007813 18.007812zm0 0" fill="#ff9a9a"/><path d="m336.066406 307.628906c0 9.945313-8.0625 18.007813-18.007812 18.007813-9.945313 0-18.007813-8.0625-18.007813-18.007813 0-9.945312 8.0625-18.007812 18.007813-18.007812 9.945312 0 18.007812 8.0625 18.007812 18.007812zm0 0" fill="#ff9a9a"/><path d="m168.019531 28.648438c-3.257812 4.839843-5.546875 10.347656-6.539062 16.339843-9.296875 56.09375 63.8125 84.882813 107.644531 78.089844 4.765625-.738281 7.371094-5.984375 5.089844-10.234375-5.535156-10.320312-10.140625-19.0625-12.074219-30.480469-2.097656-12.398437-1.851563-26.3125-4.949219-38.050781-5.203125-19.730469-22.78125-34.007812-42.851562-36.460938-18.207032-2.226562-36.585938 6.3125-46.320313 20.796876zm0 0" fill="#7c7b7b"/><path d="m269.121094 123.085938c-2.792969.429687-5.714844.71875-8.730469.859374.121094-1.292968-.128906-2.632812-.800781-3.882812-5.535156-10.316406-10.140625-19.066406-12.074219-30.480469-2.105469-12.398437-1.851563-26.316406-4.945313-38.050781-5.207031-19.726562-22.792968-34.003906-42.855468-36.457031-6.871094-.839844-13.761719-.148438-20.199219 1.8125 9.792969-7.039063 22.351563-10.5625 34.828125-9.03125 20.0625 2.453125 37.648438 16.730469 42.855469 36.457031 3.09375 11.734375 2.84375 25.652344 4.945312 38.046875 1.929688 11.417969 6.539063 20.167969 12.074219 30.480469 2.273438 4.257812-.328125 9.503906-5.097656 10.246094zm0 0" fill="#727272"/><path d="m220.523438 346.554688c9.011718 0 17.347656-4.09375 22.867187-11.230469 2.535156-3.28125 1.933594-7.996094-1.347656-10.535157-3.28125-2.535156-7.996094-1.933593-10.535157 1.347657-2.652343 3.429687-6.65625 5.398437-10.984374 5.398437-4.324219 0-8.328126-1.96875-10.980469-5.394531-2.539063-3.28125-7.257813-3.882813-10.535157-1.34375-3.28125 2.535156-3.882812 7.253906-1.34375 10.535156 5.519532 7.128907 13.851563 11.222657 22.859376 11.222657zm0 0"/><path d="m156.125 274.621094v-18.453125c0-4.148438-3.359375-7.511719-7.507812-7.511719-4.148438 0-7.511719 3.363281-7.511719 7.511719v18.453125c0 4.144531 3.363281 7.507812 7.511719 7.507812 4.148437 0 7.507812-3.363281 7.507812-7.507812zm0 0"/><path d="m299.453125 274.621094v-18.453125c0-4.148438-3.359375-7.511719-7.507813-7.511719-4.148437 0-7.511718 3.363281-7.511718 7.511719v18.453125c0 4.144531 3.363281 7.507812 7.511718 7.507812 4.144532 0 7.507813-3.363281 7.507813-7.507812zm0 0"/><path d="m400.992188 201.296875v-1.664063c0-88.046874-63.300782-161.574218-146.777344-177.5-9.34375-11.730468-23.316406-19.824218-38.964844-21.734374-20.609375-2.523438-42.09375 7.148437-53.464844 24.058593-1.152344 1.71875-2.175781 3.488281-3.097656 5.296875-69.40625 25.242188-119.113281 91.859375-119.113281 169.878906v1.664063c-21.980469 2.648437-39.074219 21.449219-39.074219 44.1875 0 22.742187 17.09375 41.542969 39.074219 44.191406v.011719c0 27.734375 8.433593 54.3125 24.386719 76.855469 2.394531 3.386719 7.082031 4.191406 10.46875 1.792969 3.386718-2.394532 4.1875-7.082032 1.792968-10.46875-14.152344-19.996094-21.628906-43.570313-21.628906-68.179688v-90.054688c0-67.617187 40.722656-125.890624 98.921875-151.617187-1.464844 14.230469 1.703125 27.542969 9.476563 39.621094 2.246093 3.488281 6.890624 4.496093 10.378906 2.25 3.488281-2.246094 4.496094-6.890625 2.25-10.378907-6.464844-10.042968-8.730469-21.242187-6.730469-33.292968.789063-4.761719 2.589844-9.261719 5.359375-13.382813 8.292969-12.335937 24.039062-19.378906 39.175781-17.53125 17.519531 2.144531 32.191407 14.570313 36.503907 30.925781 1.65625 6.277344 2.277343 13.402344 2.933593 20.941407.46875 5.425781.957031 11.035156 1.875 16.445312 2.132813 12.609375 7.15625 22.144531 12.523438 32.152344-21.171875 3.050781-48.671875-2.9375-68.707031-15-3.554688-2.140625-8.167969-.996094-10.308594 2.558594-2.136719 3.550781-.992188 8.167969 2.5625 10.308593 18.988281 11.433594 43.089844 17.949219 64.789062 17.949219 5.054688 0 9.980469-.355469 14.679688-1.082031 4.636718-.71875 8.660156-3.660156 10.753906-7.867188 2.101562-4.210937 2.027344-9.199218-.199219-13.34375-5.105469-9.515624-9.515625-17.734374-11.285156-28.183593-.8125-4.808594-1.253906-9.875-1.722656-15.238281-.679688-7.839844-1.386719-15.949219-3.371094-23.472657-.238281-.90625-.507813-1.800781-.792969-2.6875 70.390625 19.113281 122.3125 83.566407 122.3125 159.921875l-.003906 8.785156v.058594l-.007812 81.210938c0 31.324218-12.105469 60.824218-34.089844 83.058594-21.96875 22.214843-51.234375 34.597656-82.40625 34.859374-.0625 0-.121094.003907-.179688.003907-.285156.011719-.558594.007812-.839844.007812h-96.335937c-.273437 0-.550781 0-.820313-.007812-.0625 0-.125 0-.1875-.003907-26.519531-.21875-51.476562-9.09375-72.183593-25.65625-3.238281-2.589843-7.964844-2.0625-10.554688 1.175782-2.589843 3.238281-2.066406 7.960937 1.171875 10.554687 7.234375 5.785157 14.933594 10.722657 22.996094 14.8125-24.046875 16.71875-43.261719 39.25-55.8125 65.636719-4.273438 8.976562-8.03125 18.410156-11.171875 28.03125-.75 2.289062-.355469 4.792969 1.058594 6.742188 1.414062 1.949218 3.671875 3.097656 6.078125 3.097656h335.1875c2.40625 0 4.664062-1.148438 6.078125-3.097656 1.414062-1.949219 1.808593-4.453126 1.0625-6.742188-2.867188-8.777344-6.25-17.40625-10.058594-25.648438-12.832031-27.789062-32.800781-50.984374-57.121094-67.90625 12.703125-6.398437 24.421875-14.886718 34.714844-25.300781 24.78125-25.0625 38.433594-58.3125 38.433594-93.613281v-.015625c21.980469-2.644531 39.078125-21.445313 39.078125-44.1875.003906-22.738281-17.089844-41.539063-39.066406-44.1875zm-361.417969 73.203125c-13.667969-2.519531-24.054688-14.570312-24.054688-29.015625 0-14.441406 10.386719-26.492187 24.054688-29.011719zm217.492187 148.136719c-6.941406 11.804687-19.925781 19.273437-33.953125 19.273437h-5.664062c-14.003907 0-26.925781-7.449218-33.9375-19.273437zm114.253906 60.171875c2.128907 4.609375 4.117188 9.347656 5.945313 14.171875h-313.972656c2.121093-5.597657 4.460937-11.085938 6.988281-16.402344 12.53125-26.339844 32.339844-48.484375 57.277344-64.046875.550781-.34375 1.113281-.664062 1.664062-.996094 11.992188 4.105469 24.589844 6.476563 37.554688 6.984375.398437.976563.816406 1.949219 1.253906 2.902344 8.835938 19.140625 28.238281 31.507813 49.417969 31.507813h5.664062c20.914063 0 40.175781-12.078126 49.066407-30.765626.566406-1.191406 1.097656-2.414062 1.605468-3.648437 12.871094-.507813 25.414063-2.859375 37.332032-6.90625 25.863281 15.707031 47.105468 38.835937 60.203124 67.199219zm29.667969-208.308594v-58.027344c13.667969 2.523438 24.050781 14.570313 24.050781 29.011719 0 14.445313-10.386718 26.496094-24.050781 29.015625zm0 0"/></svg>