<?xml version="1.0" encoding="iso-8859-1"?>
<!-- Generator: Adobe Illustrator 19.0.0, SVG Export Plug-In . SVG Version: 6.00 Build 0)  -->
<svg version="1.1" id="Capa_1" xmlns="http://www.w3.org/2000/svg" xmlns:xlink="http://www.w3.org/1999/xlink" x="0px" y="0px"
	 viewBox="0 0 512 512" style="enable-background:new 0 0 512 512;" xml:space="preserve">
<path style="fill:#303C42;" d="M469.333,21.333H42.667C19.146,21.333,0,40.469,0,64v384c0,23.531,19.146,42.667,42.667,42.667
	h426.667C492.854,490.667,512,471.531,512,448V64C512,40.469,492.854,21.333,469.333,21.333z"/>
<path style="fill:#DFE1DF;" d="M490.667,448c0,11.76-9.563,21.333-21.333,21.333H42.667c-11.771,0-21.333-9.573-21.333-21.333V64
	c0-11.76,9.563-21.333,21.333-21.333h426.667c11.771,0,21.333,9.573,21.333,21.333V448z"/>
<path style="opacity:0.1;enable-background:new    ;" d="M469.333,42.667h-10.667v317.724c0,42.493-34.448,76.943-76.943,76.943
	H21.333V448c0,11.76,9.563,21.333,21.333,21.333h426.667c11.771,0,21.333-9.573,21.333-21.333V64
	C490.667,52.24,481.104,42.667,469.333,42.667z"/>
<circle style="fill:#303C42;" cx="245.333" cy="106.667" r="42.667"/>
<circle style="fill:#69B342;" cx="245.333" cy="106.667" r="21.333"/>
<path style="opacity:0.2;fill:#FFFFFF;enable-background:new    ;" d="M234.667,117.333C234.667,105.573,244.229,96,256,96
	c3.12,0,6.034,0.747,8.706,1.954c-3.349-7.404-10.725-12.621-19.372-12.621c-11.771,0-21.333,9.573-21.333,21.333
	c0,8.645,5.216,16.031,12.628,19.379C235.418,123.371,234.667,120.454,234.667,117.333z"/>
<path style="fill:#303C42;" d="M285.604,238.031l-25.479-51.01c-4.542-9.01-12.125-16.146-21.354-20.104l-50.25-21.542
	c-11.604-4.979-24.667-4.573-35.896,1.052l-50.729,25.365c-2.521,1.271-4.458,3.49-5.354,6.167l-32,96
	c-1.083,3.25-0.542,6.833,1.479,9.615c2,2.781,5.208,4.427,8.646,4.427h32.854l-20.75,58.156l-40.979,40.969
	c-2,2-3.125,4.708-3.125,7.542c0,2.833,1.125,5.542,3.125,7.542l32,31.99c4.167,4.167,10.917,4.167,15.083,0l53.333-53.323
	c1.167-1.167,2.063-2.594,2.583-4.167l13.792-41.365L192,386.833v50.5c0,5.896,4.771,10.667,10.667,10.667h42.667
	c5.896,0,10.667-4.771,10.667-10.667v-74.667c0-1.854-0.479-3.677-1.396-5.292l-40.125-70.198l10.604-26.5l10.708,21.427
	c1.042,2.063,2.708,3.74,4.771,4.771l42.667,21.333c4.75,2.365,10.646,0.854,13.646-3.625l21.333-32
	c3.271-4.906,1.938-11.521-2.958-14.792L285.604,238.031z"/>
<path style="fill:#69B342;" d="M284.354,284.917l-31.063-15.531l-19.75-39.49c-1.875-3.75-5.75-6.042-9.979-5.885
	c-4.208,0.177-7.896,2.792-9.458,6.698l-21.333,53.333c-1.208,3.021-0.979,6.427,0.625,9.25l41.271,72.208v61.167h-21.333V384
	c0-1.854-0.479-3.677-1.396-5.292l-42.667-74.667c-2.104-3.646-6.396-5.646-10.313-5.323c-4.188,0.417-7.75,3.25-9.083,7.24
	l-20.521,61.615l-44.021,44l-16.917-16.906l35.125-35.125c1.125-1.115,1.979-2.469,2.5-3.958l26.583-74.427
	c0.063-0.156,0.125-0.313,0.167-0.469l26.583-74.438c1.979-5.542-0.917-11.646-6.458-13.625c-5.563-1.979-11.646,0.917-13.625,6.458
	l-24.146,67.583H89.458l25.938-77.771l46.771-23.385c5.625-2.802,12.188-3.01,17.938-0.531l50.25,21.542
	c4.625,1.979,8.438,5.563,10.688,10.063l26.75,53.521c0.833,1.656,2.083,3.073,3.625,4.104l23.125,15.417L284.354,284.917z"/>
<path style="opacity:0.2;fill:#FFFFFF;enable-background:new    ;" d="M117.316,212.543c2.772-8.311,8.732-15.182,16.569-19.1
	l29.763-14.882c8.638-4.319,18.74-4.616,27.616-0.811l45.374,19.452c3.164,1.357,5.697,3.645,7.849,6.273l-3.445-6.892
	c-2.25-4.5-6.063-8.083-10.688-10.063l-50.25-21.542c-5.75-2.479-12.313-2.271-17.938,0.531l-46.771,23.385l-25.938,77.771h9.807
	L117.316,212.543z"/>
<path style="fill:#303C42;" d="M412,215.667c-3.208-2.573-7.583-3.083-11.291-1.281c-3.688,1.781-6.042,5.51-6.042,9.615v10.667H352
	c-5.896,0-10.667,4.771-10.667,10.667V288c0,5.896,4.771,10.667,10.667,10.667h42.667v10.667c0,4.104,2.354,7.833,6.042,9.615
	c1.479,0.708,3.063,1.052,4.625,1.052c2.375,0,4.729-0.792,6.666-2.333L465.333,275c2.521-2.031,4-5.094,4-8.333
	c0-3.24-1.479-6.302-4-8.333L412,215.667z"/>
<path style="fill:#69B342;" d="M415.958,287.167c-0.417-5.5-5.021-9.833-10.625-9.833h-42.667V256h42.667
	c5.604,0,10.208-4.333,10.625-9.833l25.625,20.5L415.958,287.167z"/>
<linearGradient id="SVGID_1_" gradientUnits="userSpaceOnUse" x1="-48.1768" y1="640.7672" x2="-21.2295" y2="628.2015" gradientTransform="matrix(21.3333 0 0 -21.3333 996.3334 13791.667)">
	<stop  offset="0" style="stop-color:#FFFFFF;stop-opacity:0.2"/>
	<stop  offset="1" style="stop-color:#FFFFFF;stop-opacity:0"/>
</linearGradient>
<path style="fill:url(#SVGID_1_);" d="M469.333,21.333H42.667C19.146,21.333,0,40.469,0,64v384
	c0,23.531,19.146,42.667,42.667,42.667h426.667C492.854,490.667,512,471.531,512,448V64C512,40.469,492.854,21.333,469.333,21.333z"
	/>
<g>
</g>
<g>
</g>
<g>
</g>
<g>
</g>
<g>
</g>
<g>
</g>
<g>
</g>
<g>
</g>
<g>
</g>
<g>
</g>
<g>
</g>
<g>
</g>
<g>
</g>
<g>
</g>
<g>
</g>
</svg>
