<svg width="512" height="512" viewBox="0 0 512 512" fill="none" xmlns="http://www.w3.org/2000/svg">
<path fill-rule="evenodd" clip-rule="evenodd" d="M491.363 439.762L381.055 329.457C436.098 250.094 428.27 140.32 357.562 69.6133C278.047 -9.90625 149.125 -9.90625 69.6094 69.6133C-9.90625 149.129 -9.90625 278.047 69.6094 357.566C140.32 428.273 250.09 436.102 329.453 381.055L439.758 491.363C453.949 505.551 477.172 505.551 491.359 491.363C505.551 477.172 505.551 453.949 491.363 439.762Z" fill="#BB3B0E"/>
<path fill-rule="evenodd" clip-rule="evenodd" d="M317.094 110.082C259.926 52.9141 167.242 52.9141 110.078 110.082C52.9102 167.246 52.9102 259.93 110.078 317.098C167.242 374.262 259.926 374.262 317.094 317.098C374.258 259.93 374.258 167.246 317.094 110.082Z" fill="#BB3B0E"/>
<path fill-rule="evenodd" clip-rule="evenodd" d="M248.953 61.2735C243.586 60.0352 238.23 63.3751 236.988 68.7423C235.746 74.1095 239.094 79.4688 244.461 80.711C269.273 86.4454 291.953 99.043 310.043 117.133C363.227 170.316 363.227 256.859 310.043 310.043C256.859 363.231 170.316 363.231 117.133 310.043C63.9453 256.859 63.9453 170.316 117.133 117.133C132.402 101.863 150.473 90.7266 170.844 84.0235C176.074 82.3048 178.922 76.668 177.203 71.4337C175.48 66.1993 169.84 63.3516 164.609 65.0743C141.242 72.7579 120.523 85.5274 103.027 103.027C42.0625 163.992 42.0625 263.188 103.027 324.152C133.508 354.633 173.547 369.875 213.59 369.875C253.629 369.871 293.668 354.633 324.152 324.152C385.113 263.188 385.113 163.992 324.152 103.027C303.414 82.293 277.414 67.8516 248.953 61.2735Z" fill="#1B1B2F"/>
<path fill-rule="evenodd" clip-rule="evenodd" d="M498.414 432.707L393.883 328.176C447.484 244.121 435.746 133.691 364.617 62.5586C324.277 22.2188 270.641 0 213.59 0C156.535 0 102.898 22.2188 62.5586 62.5586C22.2148 102.898 0 156.535 0 213.59C0 270.641 22.2148 324.277 62.5586 364.617C102.898 404.957 156.531 427.172 213.582 427.172C254.527 427.172 293.969 415.688 328.176 393.883L432.707 498.414C441.453 507.164 453.121 511.98 465.562 511.98C478 511.98 489.668 507.164 498.418 498.414C516.527 480.297 516.527 450.824 498.414 432.707ZM484.309 484.309C479.328 489.285 472.672 492.027 465.562 492.027C458.449 492.027 451.793 489.285 446.812 484.309L336.508 374.004C334.578 372.07 332.023 371.082 329.453 371.082C327.477 371.082 325.492 371.664 323.77 372.859C291.359 395.34 253.254 407.223 213.582 407.223C161.859 407.223 113.234 387.082 76.6641 350.512C1.16406 275.012 1.16406 152.164 76.6641 76.6641C113.238 40.0898 161.863 19.9492 213.59 19.9492C265.312 19.9492 313.938 40.0898 350.512 76.6641C416.793 142.949 426.195 246.871 372.859 323.77C370.109 327.734 370.59 333.094 374.004 336.508L484.309 446.812C494.645 457.148 494.645 473.969 484.309 484.309Z" fill="#1B1B2F"/>
<path fill-rule="evenodd" clip-rule="evenodd" d="M273.805 153.371C269.91 149.477 263.598 149.477 259.699 153.371L213.59 199.48L167.477 153.371C163.582 149.477 157.266 149.477 153.371 153.371C149.477 157.266 149.477 163.582 153.371 167.477L199.48 213.59L153.371 259.699C149.477 263.594 149.477 269.91 153.371 273.805C155.316 275.754 157.871 276.727 160.422 276.727C162.977 276.727 165.527 275.754 167.477 273.805L213.586 227.695L259.695 273.805C261.645 275.754 264.199 276.727 266.75 276.727C269.305 276.727 271.855 275.754 273.805 273.805C277.699 269.91 277.699 263.594 273.805 259.699L227.691 213.59L273.805 167.477C277.699 163.582 277.699 157.266 273.805 153.371Z" fill="#1B1B2F"/>
<path fill-rule="evenodd" clip-rule="evenodd" d="M206.977 77.3281C212.469 77.3281 216.949 72.8477 216.949 67.3516C216.949 61.8594 212.469 57.3789 206.977 57.3789C201.48 57.3789 197 61.8594 197 67.3516C197 72.8477 201.48 77.3281 206.977 77.3281Z" fill="black"/>
</svg>
