<svg id="Layer_1" height="512" viewBox="0 0 512 512" width="512" xmlns="http://www.w3.org/2000/svg" data-name="Layer 1"><path d="m304.37 71.44c-4.77 18.74-26.4 32.9-52.35 32.9-23.93 0-44.18-12.03-50.94-28.6l-.1-.27a66.239 66.239 0 0 0 -28.75 54.66v28.12h-4.19a15.664 15.664 0 0 0 -6.5 1.4l-5.1-12.83a110.332 110.332 0 0 1 0-81.57l.79-2a17.183 17.183 0 0 1 15.97-10.83 20.707 20.707 0 0 0 20.71-20.71 20.72 20.72 0 0 1 15.96-20.16 19.506 19.506 0 0 1 6.94-.27c14.86 1.86 101.22 11.97 131.33-.28v10.57a34.858 34.858 0 0 1 -5.06 18.14h.01l5.05 12.71a144.989 144.989 0 0 1 .29 106.48 15.686 15.686 0 0 0 -4.47-.65h-4.19v-28.12a66.317 66.317 0 0 0 -35.4-58.69z" fill="#6d7486"/><path d="m348.43 158.9a15.7 15.7 0 0 1 -4.47 30.76h-4.19v9.52a83.777 83.777 0 0 1 -137.64 64.16q-2.79-2.34-5.37-4.92a83.5 83.5 0 0 1 -24.53-59.24v-9.52h-4.19a15.705 15.705 0 1 1 0-31.41h4.19v-28.12a66.239 66.239 0 0 1 28.75-54.66l.1.27c6.76 16.57 27.01 28.6 50.94 28.6 25.95 0 47.58-14.16 52.35-32.9a66.317 66.317 0 0 1 35.4 58.69v28.12h4.19a15.686 15.686 0 0 1 4.47.65z" fill="#ffd39f"/><path d="m155.98 336.28 58.71 164.72h82.62l58.71-164.72z" fill="#ff5a5a"/><path d="m310.26 322.7v-58.89l-.39-.47a83.8 83.8 0 0 1 -107.74 0l-.39.47v58.89l-.13.22h108.78z" fill="#efc597"/><path d="m130.83 501h-63.25v-103.58a61.136 61.136 0 0 1 61.14-61.14h27.26l58.71 164.72z" fill="#604af3"/><path d="m381.17 501h-83.86l58.71-164.72h27.26a61.136 61.136 0 0 1 61.14 61.14v103.58z" fill="#604af3"/><path d="m274.82 323.23a10.2 10.2 0 0 0 -3.51-.62h-30.62a10.216 10.216 0 0 0 -10.21 10.21v20.41a10.216 10.216 0 0 0 10.21 10.21h30.62a10.2 10.2 0 0 0 10.21-10.21v-20.41a10.207 10.207 0 0 0 -6.7-9.59z" fill="#f0b640"/><path d="m230.48 353.23v-20.41a10.2 10.2 0 0 1 4.92-8.73l-.92-1.48-32.87-19.69-.36-.22a56.767 56.767 0 0 0 -16.32 33.64 57.421 57.421 0 0 0 -.39 6.68 56.831 56.831 0 0 0 16.71 40.33l33.23-19.91.92-1.48a10.2 10.2 0 0 1 -4.92-8.73z" fill="#fffd54"/><path d="m327.07 336.34a56.767 56.767 0 0 0 -16.32-33.64l-.36.22-32.87 19.69-2.7.62a10.207 10.207 0 0 1 6.7 9.59v20.41a10.207 10.207 0 0 1 -6.7 9.59l2.7.62 33.23 19.91a56.831 56.831 0 0 0 16.71-40.33 57.421 57.421 0 0 0 -.39-6.68z" fill="#fffd54"/><path d="m232.13 263.34q-2.79-2.34-5.37-4.92a83.5 83.5 0 0 1 -24.53-59.24v-69.05a66.013 66.013 0 0 1 11.87-37.875 40.459 40.459 0 0 1 -13.02-16.515l-.1-.27a66.239 66.239 0 0 0 -28.75 54.66v28.12h-4.19a15.705 15.705 0 1 0 0 31.41h4.19v9.52a83.5 83.5 0 0 0 24.53 59.24q2.58 2.58 5.37 4.92a83.42 83.42 0 0 0 53.87 19.61 84.328 84.328 0 0 0 15-1.339 83.412 83.412 0 0 1 -38.87-18.271z" fill="#efc597"/><path d="m156.005 336.349-.025-.069h-27.26a61.136 61.136 0 0 0 -61.14 61.14v103.58h30v-103.58a61.13 61.13 0 0 1 58.425-61.071z" fill="#867af4"/><g fill="#284268"><path d="m383.284 330.283h-51.159a62.632 62.632 0 0 0 -15.86-30.494v-34.126a89.564 89.564 0 0 0 29.51-66.484v-3.59a21.685 21.685 0 0 0 10.173-39.7 150.4 150.4 0 0 0 -2.228-105.689l-4.02-10.1a40.747 40.747 0 0 0 4.444-18.533v-10.567a6 6 0 0 0 -8.261-5.558c-29.14 11.858-118.261 1.145-128.328-.115a25.7 25.7 0 0 0 -9.056.379 26.6 26.6 0 0 0 -20.59 26 14.726 14.726 0 0 1 -14.709 14.712 23.066 23.066 0 0 0 -21.541 14.614l-.8 2a115.886 115.886 0 0 0 0 86.005l3.291 8.271a21.679 21.679 0 0 0 12.073 38.279v3.59a89.564 89.564 0 0 0 29.51 66.484v34.126a62.632 62.632 0 0 0 -15.86 30.494h-51.157a67.212 67.212 0 0 0 -67.136 67.138v103.581a6 6 0 0 0 6 6h376.84a6 6 0 0 0 6-6v-103.581a67.212 67.212 0 0 0 -67.136-67.136zm-73.457 45.177-23.542-16.034a16.112 16.112 0 0 0 1.236-6.194v-6.369a17.965 17.965 0 0 1 14.175 1.471 6 6 0 0 0 5.588-10.619 29.869 29.869 0 0 0 -19.763-3.186v-1.714a16.107 16.107 0 0 0 -1.236-6.193l23.542-16.034a51.122 51.122 0 0 1 0 64.872zm-38.515-58.853h-30.624a16.114 16.114 0 0 0 -6.437 1.34c-.128-.1-.257-.2-.4-.3l-26.121-17.792v-25.01a89.614 89.614 0 0 0 96.53 0v25.01l-26.121 17.792c-.138.094-.267.2-.395.3a16.114 16.114 0 0 0 -6.432-1.34zm4.209 16.208v9.827a6.02 6.02 0 0 0 0 .94v9.65a4.213 4.213 0 0 1 -4.209 4.208h-30.624a4.213 4.213 0 0 1 -4.209-4.208v-20.417a4.213 4.213 0 0 1 4.209-4.208h30.624a4.213 4.213 0 0 1 4.209 4.208zm-113.51-265.345.8-2a11.128 11.128 0 0 1 10.392-7.05 26.739 26.739 0 0 0 26.709-26.709 14.643 14.643 0 0 1 11.328-14.323 13.81 13.81 0 0 1 4.824-.154c15.622 1.956 90.038 10.556 126.081 1.9v2.43a29.053 29.053 0 0 1 -29.02 29.019h-39.259a6 6 0 0 0 0 12h39.259a40.865 40.865 0 0 0 28.144-11.219l1.3 3.269a138.43 138.43 0 0 1 3.206 93.865v-18.37a72.2 72.2 0 0 0 -38.575-63.981 6 6 0 0 0 -8.486 3.281 5.859 5.859 0 0 0 -.2.693c-4.269 16.36-23.786 28.216-46.494 28.216-20.736 0-39.383-10.208-45.363-24.828l-.091-.233a6 6 0 0 0 -8.988-2.749 72.371 72.371 0 0 0 -31.349 59.6v22.192c-.367.03-.724.094-1.085.142l-3.128-7.862a103.926 103.926 0 0 1 -.005-77.129zm16.214 131.709v-9.515a6 6 0 0 0 -6-6h-4.188a9.708 9.708 0 0 1 0-19.416h4.189a6 6 0 0 0 6-6v-28.117a60.358 60.358 0 0 1 20.723-45.507c9.905 15.627 30.242 25.713 53.068 25.713 24.873 0 46.846-12.254 55.459-30.034a60.2 60.2 0 0 1 26.3 49.828v28.117a6 6 0 0 0 6 6h4.188a9.708 9.708 0 0 1 0 19.416h-4.188a6 6 0 0 0 -6 6v9.515a77.775 77.775 0 1 1 -155.55 0zm23.948 111.409 23.542 16.034a16.107 16.107 0 0 0 -1.236 6.193v1.857a27.246 27.246 0 0 0 -20.137 3.257 6 6 0 0 0 6.337 10.191c4.9-3.05 10.436-2.132 13.8-1.074v6.186a16.112 16.112 0 0 0 1.236 6.194l-23.542 16.034a51.122 51.122 0 0 1 0-64.872zm-65.346 184.412v-39.535a6 6 0 1 0 -12 0v39.535h-51.247v-97.581a55.2 55.2 0 0 1 55.136-55.136h23.028l54.434 152.717zm82.091 0-54.434-152.717h14.1a62.833 62.833 0 0 0 18.416 45.311 6 6 0 0 0 7.621.717l29.235-19.911c.138-.094.267-.2.4-.3a16.1 16.1 0 0 0 6.437 1.34h30.624a16.1 16.1 0 0 0 6.437-1.34c.128.1.257.2.395.3l29.232 19.912a6 6 0 0 0 7.621-.717 62.833 62.833 0 0 0 18.414-45.311h14.105l-54.439 152.716zm219.5 0h-51.245v-39.535a6 6 0 1 0 -12 0v39.535h-69.351l54.434-152.717h23.028a55.2 55.2 0 0 1 55.136 55.136z"/><path d="m241.318 62.586h10.937a6 6 0 0 0 0-12h-10.937a6 6 0 0 0 0 12z"/><path d="m256 401.6a11.1 11.1 0 1 0 -11.1-11.105 11.117 11.117 0 0 0 11.1 11.105z"/><path d="m256 437.327a11.1 11.1 0 1 0 -11.1-11.1 11.116 11.116 0 0 0 11.1 11.1z"/><path d="m256 473.056a11.1 11.1 0 1 0 -11.1-11.1 11.117 11.117 0 0 0 11.1 11.1z"/></g></svg>