<svg xmlns="http://www.w3.org/2000/svg" xmlns:xlink="http://www.w3.org/1999/xlink" version="1.1" style="enable-background:new 0 0 512 512;" xml:space="preserve" width="512" height="512"><rect id="backgroundrect" width="100%" height="100%" x="0" y="0" fill="none" stroke="none"/>

















<g class="currentLayer" style=""><title>Layer 1</title><g id="svg_1" class="" fill-opacity="1" fill="#00909e">
	<g id="svg_2" fill="#00909e">
		<path d="M467.812,431.851l-36.629-61.056c-16.917-28.181-25.856-60.459-25.856-93.312V224c0-67.52-45.056-124.629-106.667-143.04    V42.667C298.66,19.136,279.524,0,255.993,0s-42.667,19.136-42.667,42.667V80.96C151.716,99.371,106.66,156.48,106.66,224v53.483    c0,32.853-8.939,65.109-25.835,93.291l-36.629,61.056c-1.984,3.307-2.027,7.403-0.128,10.752c1.899,3.349,5.419,5.419,9.259,5.419    H458.66c3.84,0,7.381-2.069,9.28-5.397C469.839,439.275,469.775,435.136,467.812,431.851z" id="svg_3" fill="#00909e"/>
	</g>
</g><g id="svg_4" class="" fill-opacity="1" fill="#00909e">
	<g id="svg_5" fill="#00909e">
		<path d="M188.815,469.333C200.847,494.464,226.319,512,255.993,512s55.147-17.536,67.179-42.667H188.815z" id="svg_6" fill="#00909e"/>
	</g>
</g><g id="svg_7">
</g><g id="svg_8">
</g><g id="svg_9">
</g><g id="svg_10">
</g><g id="svg_11">
</g><g id="svg_12">
</g><g id="svg_13">
</g><g id="svg_14">
</g><g id="svg_15">
</g><g id="svg_16">
</g><g id="svg_17">
</g><g id="svg_18">
</g><g id="svg_19">
</g><g id="svg_20">
</g><g id="svg_21">
</g></g></svg>