<svg id="color" enable-background="new 0 0 24 24" height="512" viewBox="0 0 24 24" width="512" xmlns="http://www.w3.org/2000/svg"><path d="m21 1h-18c-1.654 0-3 1.346-3 3v16c0 1.654 1.346 3 3 3h18c1.654 0 3-1.346 3-3v-16c0-1.654-1.346-3-3-3z" fill="#607d8b"/><path d="m21 21h-18c-.551 0-1-.448-1-1v-14h20v14c0 .552-.449 1-1 1z" fill="#fff"/><path d="m12 20c-3.559 0-6.886-2.104-8.901-5.628-.132-.23-.132-.514 0-.744 2.015-3.524 5.342-5.628 8.901-5.628s6.886 2.104 8.901 5.628c.132.23.132.514 0 .744-2.015 3.524-5.342 5.628-8.901 5.628z" fill="#2196f3"/><path d="m12 17c-1.654 0-3-1.346-3-3s1.346-3 3-3 3 1.346 3 3-1.346 3-3 3z" fill="#fff"/><path d="m7 20c-.256 0-.512-.098-.707-.293-.391-.391-.391-1.023 0-1.414l11-11c.391-.391 1.023-.391 1.414 0s.391 1.023 0 1.414l-11 11c-.195.195-.451.293-.707.293z" fill="#f44336"/><path d="m12 1h-9c-1.654 0-3 1.346-3 3v16c0 1.654 1.346 3 3 3h9v-2h-9c-.551 0-1-.448-1-1v-14h10z" fill="#546d79"/><path d="m12 6h-10v14c0 .552.449 1 1 1h9v-1c-1.306 0-2.58-.283-3.77-.816l-.523.523c-.195.195-.451.293-.707.293s-.512-.098-.707-.293c-.391-.391-.391-1.023 0-1.414l.145-.145c-1.307-.943-2.451-2.221-3.339-3.776-.132-.23-.132-.514 0-.744 2.015-3.524 5.342-5.628 8.901-5.628z" fill="#dedede"/><path d="m10.707 16.707-2.477 2.477c1.19.533 2.464.816 3.77.816v-3c-.463 0-.901-.105-1.293-.293zm1.293-8.707c-3.559 0-6.886 2.104-8.901 5.628-.132.23-.132.514 0 .744.889 1.554 2.033 2.833 3.339 3.776l2.855-2.855c-.188-.392-.293-.83-.293-1.293 0-1.654 1.346-3 3-3z" fill="#1d83d4"/><path d="m12 15.414-1.293 1.293c.392.188.83.293 1.293.293zm0-4.414c-1.654 0-3 1.346-3 3 0 .463.105.901.293 1.293l2.707-2.707z" fill="#dedede"/><path d="m12 12.586-2.707 2.707-2.855 2.855-.145.145c-.391.391-.391 1.023 0 1.414.195.195.451.293.707.293s.512-.098.707-.293l.523-.523 2.477-2.477 1.293-1.293z" fill="#d43a2f"/></svg>