<svg id="Capa_1" enable-background="new 0 0 512 512" height="512" viewBox="0 0 512 512" width="512" xmlns="http://www.w3.org/2000/svg"><g><path d="m256 0c-99.258 0-180 81.742-180 181 0 135.33 41.36 219.316 41.938 222.319h138.062 138.062c.578-3.003 41.938-86.87 41.938-222.319 0-99.258-80.742-181-180-181z" fill="#c86e59"/><path d="m436 181c0-99.258-80.742-181-180-181v403.319h138.062c.578-3.003 41.938-86.87 41.938-222.319z" fill="#a34f3e"/><path d="m181 361c-74.559 0-135 60.441-135 135v16h105l54.375-61.937 5.625-89.063z" fill="#5a5a5a"/><path d="m331 361h-30l8.858 97.145 51.142 53.855h105v-16c0-74.559-60.441-135-135-135z" fill="#444"/><path d="m301 361-30 30h-15-15l-30-30-60 151h105 105z" fill="#fff5f5"/><path d="m301 361-30 30h-15v121h105z" fill="#efe2dd"/><g><path d="m256 316h-45v75c0 24.853 20.147 45 45 45s45-20.147 45-45v-75z" fill="#fa9"/></g><g><path d="m301 391v-75h-45v120c24.853 0 45-20.147 45-45z" fill="#ff8066"/></g><path d="m375.927 91.513-23.848 17.432c-.412.298-29.615 20.901-96.079 33.151-28.129 5.183-62.798 8.904-105 8.904h-15v90c0 66.167 53.833 120 120 120s120-53.833 120-120z" fill="#ffd5cc"/><path d="m376 241-.073-149.487-23.848 17.432c-.412.298-29.615 20.901-96.079 33.151v218.904c66.167 0 120-53.833 120-120z" fill="#fa9"/><g><path d="m196 181h30v30h-30z" fill="#5a5a5a"/></g><g><path d="m286 181h30v30h-30z" fill="#444"/></g><path d="m283.642 252.646c-4.717 11.147-15.572 18.354-27.642 18.354s-22.925-7.207-27.642-18.354l-27.627 11.719c9.434 22.25 31.128 36.635 55.269 36.635s45.835-14.385 55.269-36.636z" fill="#ff7b4a"/><path d="m311.269 264.364-27.627-11.719c-4.717 11.148-15.572 18.355-27.642 18.355v30c24.141 0 45.835-14.385 55.269-36.636z" fill="#ff435b"/></g></svg>